<svg xmlns="http://www.w3.org/2000/svg" xmlns:xlink="http://www.w3.org/1999/xlink" width="1080" zoomAndPan="magnify" viewBox="0 0 810 809.999993" height="1080" preserveAspectRatio="xMidYMid meet" version="1.0"><defs><g/></defs><g fill="#1b1915" fill-opacity="1"><g transform="translate(22.592308, 336.611833)"><g><path d="M 20.84375 -33.90625 C 23.726562 -33.90625 26.144531 -34.078125 28.09375 -34.421875 C 30.039062 -34.773438 31.585938 -35.320312 32.734375 -36.0625 C 33.890625 -36.8125 34.71875 -37.773438 35.21875 -38.953125 C 35.726562 -40.128906 35.984375 -41.519531 35.984375 -43.125 L 38.796875 -43.125 L 38.796875 -21.234375 L 35.984375 -21.234375 C 35.984375 -22.835938 35.753906 -24.226562 35.296875 -25.40625 C 34.847656 -26.582031 34.050781 -27.554688 32.90625 -28.328125 C 31.757812 -29.109375 30.207031 -29.695312 28.25 -30.09375 C 26.300781 -30.5 23.832031 -30.703125 20.84375 -30.703125 L 20.84375 -12.578125 C 20.84375 -10.816406 21.054688 -9.363281 21.484375 -8.21875 C 21.910156 -7.070312 22.644531 -6.132812 23.6875 -5.40625 C 24.726562 -4.6875 26.101562 -4.179688 27.8125 -3.890625 C 29.519531 -3.597656 31.628906 -3.453125 34.140625 -3.453125 C 36.972656 -3.453125 39.378906 -3.648438 41.359375 -4.046875 C 43.335938 -4.453125 44.992188 -5.132812 46.328125 -6.09375 C 47.660156 -7.050781 48.726562 -8.316406 49.53125 -9.890625 C 50.332031 -11.472656 51.003906 -13.441406 51.546875 -15.796875 L 54.59375 -15.796875 L 53.390625 0 L 3.609375 0 L 3.609375 -3.046875 C 5.472656 -3.097656 6.976562 -3.253906 8.125 -3.515625 C 9.28125 -3.785156 10.175781 -4.238281 10.8125 -4.875 C 11.457031 -5.519531 11.882812 -6.429688 12.09375 -7.609375 C 12.3125 -8.785156 12.421875 -10.3125 12.421875 -12.1875 L 12.421875 -49.53125 C 12.421875 -51.40625 12.328125 -52.914062 12.140625 -54.0625 C 11.953125 -55.207031 11.578125 -56.113281 11.015625 -56.78125 C 10.460938 -57.457031 9.648438 -57.914062 8.578125 -58.15625 C 7.503906 -58.394531 6.113281 -58.566406 4.40625 -58.671875 L 4.40625 -61.71875 L 50.734375 -61.71875 L 51.453125 -47.609375 L 48.65625 -47.609375 C 48.332031 -49.742188 47.8125 -51.492188 47.09375 -52.859375 C 46.375 -54.222656 45.382812 -55.304688 44.125 -56.109375 C 42.875 -56.910156 41.285156 -57.472656 39.359375 -57.796875 C 37.429688 -58.117188 35.109375 -58.28125 32.390625 -58.28125 L 22.203125 -58.28125 C 21.296875 -58.28125 20.84375 -57.820312 20.84375 -56.90625 Z M 20.84375 -33.90625 "/></g></g></g><g fill="#1b1915" fill-opacity="1"><g transform="translate(112.82284, 336.611833)"><g><path d="M 57.875 -24.84375 C 57.875 -20.625 57.457031 -16.910156 56.625 -13.703125 C 55.800781 -10.492188 54.46875 -7.820312 52.625 -5.6875 C 50.78125 -3.550781 48.390625 -1.9375 45.453125 -0.84375 C 42.515625 0.25 38.957031 0.796875 34.78125 0.796875 C 30.832031 0.796875 27.390625 0.410156 24.453125 -0.359375 C 21.515625 -1.128906 19.054688 -2.410156 17.078125 -4.203125 C 15.097656 -5.992188 13.625 -8.332031 12.65625 -11.21875 C 11.695312 -14.101562 11.21875 -17.65625 11.21875 -21.875 L 11.21875 -43.046875 C 11.21875 -46.992188 11.125 -50.035156 10.9375 -52.171875 C 10.75 -54.316406 10.203125 -55.894531 9.296875 -56.90625 C 8.660156 -57.601562 7.789062 -58.070312 6.6875 -58.3125 C 5.59375 -58.550781 4.140625 -58.671875 2.328125 -58.671875 L 2.328125 -61.71875 L 29.65625 -61.71875 L 29.65625 -58.671875 C 27.84375 -58.671875 26.375 -58.5625 25.25 -58.34375 C 24.125 -58.132812 23.242188 -57.601562 22.609375 -56.75 C 21.859375 -55.789062 21.375 -54.253906 21.15625 -52.140625 C 20.945312 -50.023438 20.84375 -46.992188 20.84375 -43.046875 L 20.84375 -21.234375 C 20.84375 -18.515625 21.125 -16.097656 21.6875 -13.984375 C 22.25 -11.878906 23.171875 -10.085938 24.453125 -8.609375 C 25.734375 -7.140625 27.398438 -6.03125 29.453125 -5.28125 C 31.515625 -4.539062 34.039062 -4.171875 37.03125 -4.171875 C 42.375 -4.171875 46.378906 -5.648438 49.046875 -8.609375 C 51.722656 -11.578125 53.0625 -15.945312 53.0625 -21.71875 L 53.0625 -41.046875 C 53.0625 -45.796875 52.875 -49.398438 52.5 -51.859375 C 52.125 -54.316406 51.429688 -56.054688 50.421875 -57.078125 C 49.671875 -57.765625 48.734375 -58.203125 47.609375 -58.390625 C 46.484375 -58.578125 45.09375 -58.671875 43.4375 -58.671875 L 43.4375 -61.71875 L 66.6875 -61.71875 L 66.6875 -58.671875 C 64.976562 -58.671875 63.578125 -58.535156 62.484375 -58.265625 C 61.390625 -58.003906 60.519531 -57.421875 59.875 -56.515625 C 59.070312 -55.390625 58.535156 -53.632812 58.265625 -51.25 C 58.003906 -48.875 57.875 -45.472656 57.875 -41.046875 Z M 57.875 -24.84375 "/></g></g></g><g fill="#1b1915" fill-opacity="1"><g transform="translate(213.869437, 336.611833)"><g><path d="M 52.75 -46.25 C 52.75 -43.414062 52.289062 -40.875 51.375 -38.625 C 50.46875 -36.382812 49.039062 -34.488281 47.09375 -32.9375 C 45.144531 -31.394531 42.601562 -30.195312 39.46875 -29.34375 C 36.34375 -28.488281 32.539062 -28.0625 28.0625 -28.0625 L 20.84375 -28.0625 L 20.84375 -12.578125 C 20.84375 -10.609375 20.960938 -8.992188 21.203125 -7.734375 C 21.441406 -6.472656 21.945312 -5.492188 22.71875 -4.796875 C 23.5 -4.109375 24.625 -3.644531 26.09375 -3.40625 C 27.5625 -3.164062 29.5 -3.046875 31.90625 -3.046875 L 31.90625 0 L 3.609375 0 L 3.609375 -3.046875 C 5.472656 -3.097656 6.976562 -3.253906 8.125 -3.515625 C 9.28125 -3.785156 10.175781 -4.238281 10.8125 -4.875 C 11.457031 -5.519531 11.882812 -6.429688 12.09375 -7.609375 C 12.3125 -8.785156 12.421875 -10.3125 12.421875 -12.1875 L 12.421875 -49.53125 C 12.421875 -51.40625 12.328125 -52.914062 12.140625 -54.0625 C 11.953125 -55.207031 11.578125 -56.113281 11.015625 -56.78125 C 10.460938 -57.457031 9.648438 -57.914062 8.578125 -58.15625 C 7.503906 -58.394531 6.113281 -58.566406 4.40625 -58.671875 L 4.40625 -61.71875 L 29.578125 -61.71875 C 36.953125 -61.71875 42.65625 -60.351562 46.6875 -57.625 C 50.726562 -54.90625 52.75 -51.113281 52.75 -46.25 Z M 20.84375 -32.0625 L 26.53125 -32.0625 C 31.875 -32.0625 35.84375 -33.085938 38.4375 -35.140625 C 41.03125 -37.203125 42.328125 -40.582031 42.328125 -45.28125 C 42.328125 -49.832031 41.296875 -53.082031 39.234375 -55.03125 C 37.179688 -56.976562 33.960938 -57.953125 29.578125 -57.953125 L 22.203125 -57.953125 C 21.296875 -57.953125 20.84375 -57.5 20.84375 -56.59375 Z M 20.84375 -32.0625 "/></g></g></g><g fill="#1b1915" fill-opacity="1"><g transform="translate(300.975344, 336.611833)"><g><path d="M 61.71875 -12.75 C 61.71875 -10.71875 61.820312 -9.070312 62.03125 -7.8125 C 62.25 -6.5625 62.664062 -5.597656 63.28125 -4.921875 C 63.894531 -4.253906 64.773438 -3.785156 65.921875 -3.515625 C 67.078125 -3.253906 68.585938 -3.097656 70.453125 -3.046875 L 70.453125 0 L 44.484375 0 L 44.484375 -3.046875 C 46.359375 -3.097656 47.867188 -3.253906 49.015625 -3.515625 C 50.160156 -3.785156 51.050781 -4.238281 51.6875 -4.875 C 52.332031 -5.519531 52.757812 -6.429688 52.96875 -7.609375 C 53.1875 -8.785156 53.296875 -10.3125 53.296875 -12.1875 L 53.296875 -29.578125 L 20.84375 -29.578125 L 20.84375 -12.75 C 20.84375 -10.71875 20.945312 -9.070312 21.15625 -7.8125 C 21.375 -6.5625 21.789062 -5.597656 22.40625 -4.921875 C 23.019531 -4.253906 23.898438 -3.785156 25.046875 -3.515625 C 26.191406 -3.253906 27.703125 -3.097656 29.578125 -3.046875 L 29.578125 0 L 3.609375 0 L 3.609375 -3.046875 C 5.472656 -3.097656 6.976562 -3.253906 8.125 -3.515625 C 9.28125 -3.785156 10.175781 -4.238281 10.8125 -4.875 C 11.457031 -5.519531 11.882812 -6.429688 12.09375 -7.609375 C 12.3125 -8.785156 12.421875 -10.3125 12.421875 -12.1875 L 12.421875 -49.53125 C 12.421875 -51.40625 12.328125 -52.914062 12.140625 -54.0625 C 11.953125 -55.207031 11.578125 -56.113281 11.015625 -56.78125 C 10.460938 -57.457031 9.648438 -57.914062 8.578125 -58.15625 C 7.503906 -58.394531 6.113281 -58.566406 4.40625 -58.671875 L 4.40625 -61.71875 L 28.78125 -61.71875 L 28.78125 -58.671875 C 27.070312 -58.617188 25.691406 -58.457031 24.640625 -58.1875 C 23.597656 -57.925781 22.796875 -57.445312 22.234375 -56.75 C 21.679688 -56.050781 21.3125 -55.085938 21.125 -53.859375 C 20.9375 -52.628906 20.84375 -51 20.84375 -48.96875 L 20.84375 -33.578125 L 53.296875 -33.578125 L 53.296875 -49.53125 C 53.296875 -51.40625 53.203125 -52.914062 53.015625 -54.0625 C 52.835938 -55.207031 52.46875 -56.113281 51.90625 -56.78125 C 51.34375 -57.457031 50.523438 -57.914062 49.453125 -58.15625 C 48.390625 -58.394531 47 -58.566406 45.28125 -58.671875 L 45.28125 -61.71875 L 69.65625 -61.71875 L 69.65625 -58.671875 C 67.945312 -58.617188 66.570312 -58.457031 65.53125 -58.1875 C 64.488281 -57.925781 63.6875 -57.445312 63.125 -56.75 C 62.5625 -56.050781 62.1875 -55.085938 62 -53.859375 C 61.8125 -52.628906 61.71875 -51 61.71875 -48.96875 Z M 61.71875 -12.75 "/></g></g></g><g fill="#1b1915" fill-opacity="1"><g transform="translate(407.149554, 336.611833)"><g><path d="M 37.90625 -62.515625 C 42.613281 -62.515625 47 -61.6875 51.0625 -60.03125 C 55.125 -58.375 58.648438 -56.101562 61.640625 -53.21875 C 64.628906 -50.332031 66.976562 -46.9375 68.6875 -43.03125 C 70.40625 -39.132812 71.265625 -34.914062 71.265625 -30.375 C 71.265625 -26.050781 70.394531 -21.988281 68.65625 -18.1875 C 66.914062 -14.394531 64.550781 -11.097656 61.5625 -8.296875 C 58.570312 -5.492188 55.046875 -3.273438 50.984375 -1.640625 C 46.921875 -0.015625 42.5625 0.796875 37.90625 0.796875 C 33.257812 0.796875 28.90625 -0.015625 24.84375 -1.640625 C 20.78125 -3.273438 17.253906 -5.492188 14.265625 -8.296875 C 11.273438 -11.097656 8.910156 -14.394531 7.171875 -18.1875 C 5.429688 -21.988281 4.5625 -26.050781 4.5625 -30.375 C 4.5625 -34.914062 5.414062 -39.132812 7.125 -43.03125 C 8.84375 -46.9375 11.195312 -50.332031 14.1875 -53.21875 C 17.175781 -56.101562 20.703125 -58.375 24.765625 -60.03125 C 28.828125 -61.6875 33.207031 -62.515625 37.90625 -62.515625 Z M 37.90625 -3.609375 C 41.4375 -3.609375 44.601562 -4.222656 47.40625 -5.453125 C 50.21875 -6.679688 52.625 -8.441406 54.625 -10.734375 C 56.625 -13.035156 58.160156 -15.828125 59.234375 -19.109375 C 60.304688 -22.398438 60.84375 -26.078125 60.84375 -30.140625 C 60.84375 -34.410156 60.304688 -38.269531 59.234375 -41.71875 C 58.160156 -45.164062 56.632812 -48.101562 54.65625 -50.53125 C 52.6875 -52.96875 50.285156 -54.835938 47.453125 -56.140625 C 44.617188 -57.453125 41.4375 -58.109375 37.90625 -58.109375 C 34.382812 -58.109375 31.207031 -57.453125 28.375 -56.140625 C 25.539062 -54.835938 23.132812 -52.96875 21.15625 -50.53125 C 19.1875 -48.101562 17.664062 -45.164062 16.59375 -41.71875 C 15.519531 -38.269531 14.984375 -34.410156 14.984375 -30.140625 C 14.984375 -26.078125 15.519531 -22.398438 16.59375 -19.109375 C 17.664062 -15.828125 19.1875 -13.035156 21.15625 -10.734375 C 23.132812 -8.441406 25.539062 -6.679688 28.375 -5.453125 C 31.207031 -4.222656 34.382812 -3.609375 37.90625 -3.609375 Z M 37.90625 -3.609375 "/></g></g></g><g fill="#1b1915" fill-opacity="1"><g transform="translate(515.006247, 336.611833)"><g><path d="M 52.75 -46.25 C 52.75 -41.976562 51.460938 -38.425781 48.890625 -35.59375 C 46.328125 -32.757812 42.238281 -30.859375 36.625 -29.890625 L 54.34375 -8.578125 C 55.789062 -6.816406 57.378906 -5.546875 59.109375 -4.765625 C 60.847656 -3.992188 62.921875 -3.421875 65.328125 -3.046875 L 65.328125 0 L 49.859375 0 L 30.21875 -25.171875 C 29.519531 -26.078125 28.863281 -26.796875 28.25 -27.328125 C 27.632812 -27.867188 26.992188 -28.285156 26.328125 -28.578125 C 25.660156 -28.867188 24.882812 -29.050781 24 -29.125 C 23.125 -29.207031 22.070312 -29.25 20.84375 -29.25 L 20.84375 -12.578125 C 20.84375 -10.609375 20.960938 -8.992188 21.203125 -7.734375 C 21.441406 -6.472656 21.945312 -5.492188 22.71875 -4.796875 C 23.5 -4.109375 24.625 -3.644531 26.09375 -3.40625 C 27.5625 -3.164062 29.5 -3.046875 31.90625 -3.046875 L 31.90625 0 L 3.609375 0 L 3.609375 -3.046875 C 5.472656 -3.097656 6.976562 -3.253906 8.125 -3.515625 C 9.28125 -3.785156 10.175781 -4.238281 10.8125 -4.875 C 11.457031 -5.519531 11.882812 -6.429688 12.09375 -7.609375 C 12.3125 -8.785156 12.421875 -10.3125 12.421875 -12.1875 L 12.421875 -49.53125 C 12.421875 -51.40625 12.328125 -52.914062 12.140625 -54.0625 C 11.953125 -55.207031 11.578125 -56.113281 11.015625 -56.78125 C 10.460938 -57.457031 9.648438 -57.914062 8.578125 -58.15625 C 7.503906 -58.394531 6.113281 -58.566406 4.40625 -58.671875 L 4.40625 -61.71875 L 29.578125 -61.71875 C 36.953125 -61.71875 42.65625 -60.351562 46.6875 -57.625 C 50.726562 -54.90625 52.75 -51.113281 52.75 -46.25 Z M 20.84375 -33.265625 L 26.53125 -33.265625 C 31.875 -33.265625 35.84375 -34.238281 38.4375 -36.1875 C 41.03125 -38.132812 42.328125 -41.351562 42.328125 -45.84375 C 42.328125 -50.175781 41.296875 -53.273438 39.234375 -55.140625 C 37.179688 -57.015625 33.960938 -57.953125 29.578125 -57.953125 L 22.203125 -57.953125 C 21.296875 -57.953125 20.84375 -57.5 20.84375 -56.59375 Z M 20.84375 -33.265625 "/></g></g></g><g fill="#1b1915" fill-opacity="1"><g transform="translate(610.204161, 336.611833)"><g><path d="M 20.84375 -15.15625 C 20.84375 -12.476562 20.945312 -10.363281 21.15625 -8.8125 C 21.375 -7.269531 21.789062 -6.066406 22.40625 -5.203125 C 23.019531 -4.347656 23.898438 -3.785156 25.046875 -3.515625 C 26.191406 -3.253906 27.703125 -3.097656 29.578125 -3.046875 L 29.578125 0 L 3.609375 0 L 3.609375 -3.046875 C 5.472656 -3.097656 6.976562 -3.269531 8.125 -3.5625 C 9.28125 -3.863281 10.175781 -4.410156 10.8125 -5.203125 C 11.457031 -6.003906 11.882812 -7.140625 12.09375 -8.609375 C 12.3125 -10.085938 12.421875 -12.082031 12.421875 -14.59375 L 12.421875 -47.125 C 12.421875 -49.375 12.328125 -51.234375 12.140625 -52.703125 C 11.953125 -54.171875 11.578125 -55.332031 11.015625 -56.1875 C 10.460938 -57.039062 9.648438 -57.640625 8.578125 -57.984375 C 7.503906 -58.335938 6.113281 -58.566406 4.40625 -58.671875 L 4.40625 -61.71875 L 28.78125 -61.71875 L 28.78125 -58.671875 C 27.070312 -58.617188 25.691406 -58.40625 24.640625 -58.03125 C 23.597656 -57.65625 22.796875 -57.023438 22.234375 -56.140625 C 21.679688 -55.265625 21.3125 -54.050781 21.125 -52.5 C 20.9375 -50.945312 20.84375 -48.972656 20.84375 -46.578125 Z M 20.84375 -15.15625 "/></g></g></g><g fill="#1b1915" fill-opacity="1"><g transform="translate(675.517769, 336.611833)"><g><path d="M 39.109375 -22.359375 L 17.71875 -22.359375 C 16.8125 -20.171875 16.035156 -18.234375 15.390625 -16.546875 C 14.742188 -14.867188 14.21875 -13.414062 13.8125 -12.1875 C 13.414062 -10.957031 13.140625 -9.914062 12.984375 -9.0625 C 12.828125 -8.207031 12.75 -7.507812 12.75 -6.96875 C 12.75 -5.476562 13.226562 -4.453125 14.1875 -3.890625 C 15.144531 -3.328125 16.75 -3.046875 19 -3.046875 L 19 0 L -0.484375 0 L -0.484375 -3.046875 C 0.742188 -3.203125 1.800781 -3.414062 2.6875 -3.6875 C 3.570312 -3.957031 4.347656 -4.332031 5.015625 -4.8125 C 5.679688 -5.289062 6.265625 -5.914062 6.765625 -6.6875 C 7.273438 -7.46875 7.769531 -8.414062 8.25 -9.53125 L 29.09375 -61.71875 L 32.546875 -61.71875 L 50.734375 -16.515625 C 51.960938 -13.523438 53.03125 -11.132812 53.9375 -9.34375 C 54.851562 -7.550781 55.738281 -6.195312 56.59375 -5.28125 C 57.445312 -4.375 58.367188 -3.785156 59.359375 -3.515625 C 60.347656 -3.253906 61.535156 -3.125 62.921875 -3.125 L 62.921875 0 L 36.796875 0 L 36.796875 -3.125 C 39.628906 -3.125 41.578125 -3.390625 42.640625 -3.921875 C 43.710938 -4.460938 44.25 -5.347656 44.25 -6.578125 C 44.25 -7.109375 44.222656 -7.597656 44.171875 -8.046875 C 44.117188 -8.503906 44.023438 -9 43.890625 -9.53125 C 43.753906 -10.070312 43.566406 -10.675781 43.328125 -11.34375 C 43.085938 -12.007812 42.78125 -12.796875 42.40625 -13.703125 Z M 19.3125 -26.375 L 37.59375 -26.375 L 28.703125 -50.015625 Z M 19.3125 -26.375 "/></g></g></g><g fill="#1b1915" fill-opacity="1"><g transform="translate(220.897492, 416.123028)"><g><path d="M 30.640625 -38.59375 L 30.640625 -33.640625 L 10.734375 -33.640625 L 10.734375 -21.890625 L 28.515625 -21.890625 L 28.515625 -16.921875 L 10.734375 -16.921875 L 10.734375 -5.015625 L 31.390625 -5.015625 L 31.390625 0 L 5.546875 0 L 5.546875 -38.59375 Z M 30.640625 -38.59375 "/></g></g></g><g fill="#1b1915" fill-opacity="1"><g transform="translate(272.82188, 416.123028)"><g><path d="M 25.515625 -31.71875 C 24.128906 -32.457031 22.648438 -33.054688 21.078125 -33.515625 C 19.515625 -33.984375 18.039062 -34.21875 16.65625 -34.21875 C 14.5625 -34.21875 12.898438 -33.742188 11.671875 -32.796875 C 10.441406 -31.859375 9.828125 -30.570312 9.828125 -28.9375 C 9.828125 -27.332031 10.546875 -26.019531 11.984375 -25 C 13.429688 -23.988281 15.488281 -22.988281 18.15625 -22 C 20.144531 -21.28125 21.820312 -20.503906 23.1875 -19.671875 C 24.5625 -18.835938 25.703125 -17.679688 26.609375 -16.203125 C 27.523438 -14.722656 27.984375 -12.847656 27.984375 -10.578125 C 27.984375 -8.503906 27.460938 -6.628906 26.421875 -4.953125 C 25.390625 -3.285156 23.921875 -1.972656 22.015625 -1.015625 C 20.117188 -0.0546875 17.890625 0.421875 15.328125 0.421875 C 12.941406 0.421875 10.644531 0.0390625 8.4375 -0.71875 C 6.226562 -1.488281 4.285156 -2.457031 2.609375 -3.625 L 4.90625 -7.734375 C 6.226562 -6.742188 7.8125 -5.898438 9.65625 -5.203125 C 11.507812 -4.515625 13.238281 -4.171875 14.84375 -4.171875 C 16.90625 -4.171875 18.707031 -4.703125 20.25 -5.765625 C 21.800781 -6.835938 22.578125 -8.421875 22.578125 -10.515625 C 22.578125 -12.296875 21.925781 -13.710938 20.625 -14.765625 C 19.332031 -15.816406 17.507812 -16.800781 15.15625 -17.71875 C 12.988281 -18.539062 11.179688 -19.34375 9.734375 -20.125 C 8.296875 -20.90625 7.0625 -21.976562 6.03125 -23.34375 C 5 -24.71875 4.484375 -26.441406 4.484375 -28.515625 C 4.484375 -31.535156 5.539062 -33.976562 7.65625 -35.84375 C 9.78125 -37.71875 12.53125 -38.707031 15.90625 -38.8125 C 20.070312 -38.8125 23.9375 -37.78125 27.5 -35.71875 Z M 25.515625 -31.71875 "/></g></g></g><g fill="#1b1915" fill-opacity="1"><g transform="translate(320.958633, 416.123028)"><g><path d="M 25.515625 -31.71875 C 24.128906 -32.457031 22.648438 -33.054688 21.078125 -33.515625 C 19.515625 -33.984375 18.039062 -34.21875 16.65625 -34.21875 C 14.5625 -34.21875 12.898438 -33.742188 11.671875 -32.796875 C 10.441406 -31.859375 9.828125 -30.570312 9.828125 -28.9375 C 9.828125 -27.332031 10.546875 -26.019531 11.984375 -25 C 13.429688 -23.988281 15.488281 -22.988281 18.15625 -22 C 20.144531 -21.28125 21.820312 -20.503906 23.1875 -19.671875 C 24.5625 -18.835938 25.703125 -17.679688 26.609375 -16.203125 C 27.523438 -14.722656 27.984375 -12.847656 27.984375 -10.578125 C 27.984375 -8.503906 27.460938 -6.628906 26.421875 -4.953125 C 25.390625 -3.285156 23.921875 -1.972656 22.015625 -1.015625 C 20.117188 -0.0546875 17.890625 0.421875 15.328125 0.421875 C 12.941406 0.421875 10.644531 0.0390625 8.4375 -0.71875 C 6.226562 -1.488281 4.285156 -2.457031 2.609375 -3.625 L 4.90625 -7.734375 C 6.226562 -6.742188 7.8125 -5.898438 9.65625 -5.203125 C 11.507812 -4.515625 13.238281 -4.171875 14.84375 -4.171875 C 16.90625 -4.171875 18.707031 -4.703125 20.25 -5.765625 C 21.800781 -6.835938 22.578125 -8.421875 22.578125 -10.515625 C 22.578125 -12.296875 21.925781 -13.710938 20.625 -14.765625 C 19.332031 -15.816406 17.507812 -16.800781 15.15625 -17.71875 C 12.988281 -18.539062 11.179688 -19.34375 9.734375 -20.125 C 8.296875 -20.90625 7.0625 -21.976562 6.03125 -23.34375 C 5 -24.71875 4.484375 -26.441406 4.484375 -28.515625 C 4.484375 -31.535156 5.539062 -33.976562 7.65625 -35.84375 C 9.78125 -37.71875 12.53125 -38.707031 15.90625 -38.8125 C 20.070312 -38.8125 23.9375 -37.78125 27.5 -35.71875 Z M 25.515625 -31.71875 "/></g></g></g><g fill="#1b1915" fill-opacity="1"><g transform="translate(369.095391, 416.123028)"><g><path d="M 30.640625 -38.59375 L 30.640625 -33.640625 L 10.734375 -33.640625 L 10.734375 -21.890625 L 28.515625 -21.890625 L 28.515625 -16.921875 L 10.734375 -16.921875 L 10.734375 -5.015625 L 31.390625 -5.015625 L 31.390625 0 L 5.546875 0 L 5.546875 -38.59375 Z M 30.640625 -38.59375 "/></g></g></g><g fill="#1b1915" fill-opacity="1"><g transform="translate(421.019774, 416.123028)"><g><path d="M 39.1875 -38.59375 L 39.1875 1.28125 L 39.03125 1.28125 L 10.671875 -27.5 L 10.78125 0 L 5.546875 0 L 5.546875 -39.78125 L 5.8125 -39.78125 L 34.109375 -10.671875 L 34.015625 -38.59375 Z M 39.1875 -38.59375 "/></g></g></g><g fill="#1b1915" fill-opacity="1"><g transform="translate(482.813293, 416.123028)"><g><path d="M 33.90625 -2.890625 C 32.65625 -2.066406 31.078125 -1.304688 29.171875 -0.609375 C 27.273438 0.078125 25.203125 0.421875 22.953125 0.421875 C 19.003906 0.421875 15.523438 -0.445312 12.515625 -2.1875 C 9.515625 -3.9375 7.203125 -6.285156 5.578125 -9.234375 C 3.960938 -12.191406 3.15625 -15.445312 3.15625 -19 C 3.15625 -22.8125 3.972656 -26.238281 5.609375 -29.28125 C 7.242188 -32.320312 9.507812 -34.707031 12.40625 -36.4375 C 15.3125 -38.164062 18.597656 -39.03125 22.265625 -39.03125 C 24.429688 -39.03125 26.457031 -38.742188 28.34375 -38.171875 C 30.238281 -37.597656 31.929688 -36.851562 33.421875 -35.9375 L 31.34375 -31.078125 C 28.382812 -33.066406 25.410156 -34.0625 22.421875 -34.0625 C 19.929688 -34.0625 17.625 -33.398438 15.5 -32.078125 C 13.382812 -30.765625 11.695312 -28.976562 10.4375 -26.71875 C 9.175781 -24.457031 8.546875 -21.976562 8.546875 -19.28125 C 8.546875 -16.5 9.125 -13.984375 10.28125 -11.734375 C 11.4375 -9.492188 13.085938 -7.742188 15.234375 -6.484375 C 17.390625 -5.222656 19.875 -4.59375 22.6875 -4.59375 C 26.144531 -4.59375 29.15625 -5.570312 31.71875 -7.53125 Z M 33.90625 -2.890625 "/></g></g></g><g fill="#1b1915" fill-opacity="1"><g transform="translate(536.924858, 416.123028)"><g><path d="M 30.640625 -38.59375 L 30.640625 -33.640625 L 10.734375 -33.640625 L 10.734375 -21.890625 L 28.515625 -21.890625 L 28.515625 -16.921875 L 10.734375 -16.921875 L 10.734375 -5.015625 L 31.390625 -5.015625 L 31.390625 0 L 5.546875 0 L 5.546875 -38.59375 Z M 30.640625 -38.59375 "/></g></g></g></svg>